<?xml version="1.0" standalone="no"?>
<!DOCTYPE svg PUBLIC "-//W3C//DTD SVG 20010904//EN"
 "http://www.w3.org/TR/2001/REC-SVG-20010904/DTD/svg10.dtd">
<svg version="1.0" xmlns="http://www.w3.org/2000/svg"
 width="512.000000pt" height="512.000000pt" viewBox="0 0 512.000000 512.000000"
 preserveAspectRatio="xMidYMid meet">

<g transform="translate(0.000000,512.000000) scale(0.100000,-0.100000)"
fill="#000000" stroke="none">
<path d="M540 4834 c-36 -7 -108 -35 -160 -60 -77 -38 -110 -62 -176 -129 -68
-67 -90 -98 -127 -176 -82 -169 -77 -40 -77 -1909 0 -1869 -5 -1740 77 -1909
37 -78 59 -109 127 -176 66 -67 99 -91 176 -129 166 -81 0 -76 2180 -76 2180
0 2014 -5 2180 76 77 38 110 62 175 128 66 66 90 99 128 176 82 169 78 73 75
1640 l-3 1385 -27 80 c-68 201 -213 357 -403 434 l-70 28 -7 52 c-32 220 -184
420 -393 516 -148 69 -32 65 -1912 64 -1411 0 -1709 -3 -1763 -15z m3525 -333
c41 -17 77 -42 115 -80 52 -52 100 -132 100 -166 0 -13 -218 -15 -1857 -17
l-1858 -3 -70 -24 c-38 -13 -91 -34 -117 -47 -26 -13 -50 -24 -54 -24 -4 0 -4
23 0 51 21 160 132 289 280 325 40 10 416 12 1726 11 l1675 -2 60 -24z m500
-610 c82 -33 173 -124 206 -206 23 -59 24 -66 24 -380 l0 -320 -590 -5 -590
-5 -84 -29 c-115 -41 -249 -132 -324 -221 -72 -86 -142 -226 -163 -325 -24
-112 -15 -281 20 -385 82 -243 271 -419 526 -491 58 -16 123 -18 638 -21 l573
-4 -3 -307 c-4 -354 -9 -377 -98 -475 -58 -64 -124 -101 -205 -117 -44 -8
-577 -10 -1970 -8 l-1910 3 -60 24 c-82 33 -173 124 -206 206 l-24 60 0 1370
0 1370 24 60 c44 108 164 205 278 225 27 4 910 7 1963 6 l1915 -1 60 -24z
m235 -1646 l0 -415 -548 0 c-472 0 -556 2 -603 16 -172 50 -298 219 -299 401
0 61 27 155 63 216 49 83 159 164 254 186 21 5 284 9 586 10 l547 1 0 -415z"/>
<path d="M3750 2378 c-105 -53 -121 -195 -31 -271 110 -93 271 -21 273 121 1
134 -123 210 -242 150z"/>
</g>
</svg>
